<?xml version="1.0" encoding="UTF-8" standalone="no"?>
<!-- Created with Inkscape (http://www.inkscape.org/) -->

<svg
   width="210mm"
   height="297mm"
   viewBox="0 0 210 297"
   version="1.1"
   id="svg5"
   inkscape:version="1.2.2 (b0a8486541, 2022-12-01)"
   sodipodi:docname="camino.svg"
   xmlns:inkscape="http://www.inkscape.org/namespaces/inkscape"
   xmlns:sodipodi="http://sodipodi.sourceforge.net/DTD/sodipodi-0.dtd"
   xmlns="http://www.w3.org/2000/svg"
   xmlns:svg="http://www.w3.org/2000/svg">
  <sodipodi:namedview
     id="namedview7"
     pagecolor="#ffffff"
     bordercolor="#000000"
     borderopacity="0.25"
     inkscape:showpageshadow="2"
     inkscape:pageopacity="0.0"
     inkscape:pagecheckerboard="0"
     inkscape:deskcolor="#d1d1d1"
     inkscape:document-units="mm"
     showgrid="false"
     inkscape:zoom="1.0645786"
     inkscape:cx="339.57098"
     inkscape:cy="867.94906"
     inkscape:window-width="1870"
     inkscape:window-height="847"
     inkscape:window-x="50"
     inkscape:window-y="32"
     inkscape:window-maximized="1"
     inkscape:current-layer="layer1" />
  <defs
     id="defs2" />
  <g
     inkscape:label="Capa 1"
     inkscape:groupmode="layer"
     id="layer1">
    <rect
       style="font-variation-settings:normal;opacity:1;fill:none;fill-opacity:1;fill-rule:evenodd;stroke:#000000;stroke-width:0.79375;stroke-linecap:butt;stroke-linejoin:miter;stroke-miterlimit:4;stroke-dasharray:none;stroke-dashoffset:0;stroke-opacity:1;stop-color:#000000;stop-opacity:1"
       id="rect2603"
       width="43.641422"
       height="4.0298405"
       x="10.544371"
       y="197.73476"
       inkscape:transform-center-x="-18.9921"
       inkscape:transform-center-y="-2.888879e-06"
       ry="2.0149202" />
    <rect
       style="font-variation-settings:normal;opacity:1;fill:#d4aa00;fill-opacity:0;fill-rule:evenodd;stroke:#d4aa00;stroke-width:0.804854;stroke-linecap:round;stroke-linejoin:miter;stroke-miterlimit:4;stroke-dasharray:none;stroke-dashoffset:0;stroke-opacity:1;stop-color:#000000;stop-opacity:1"
       id="rect2717"
       width="41.114719"
       height="4.3980098"
       x="-86.129456"
       y="206.8474"
       inkscape:transform-center-x="-16.190792"
       transform="matrix(0.90489169,-0.4256419,0.6243609,0.78113601,0,0)"
       inkscape:transform-center-y="-7.615809"
       ry="2.1990049" />
    <rect
       style="font-variation-settings:normal;opacity:1;fill:#ddff55;fill-opacity:0.00362321;fill-rule:evenodd;stroke:#ddff55;stroke-width:0.794037;stroke-linecap:butt;stroke-linejoin:miter;stroke-miterlimit:4;stroke-dasharray:none;stroke-dashoffset:0;stroke-opacity:1;stop-color:#000000;stop-opacity:1"
       id="rect2719"
       width="40.441681"
       height="4.3518286"
       x="173.6118"
       y="105.8469"
       inkscape:transform-center-x="-14.914621"
       transform="matrix(0.8474395,0.53089197,-0.56273384,0.82663814,0,0)"
       inkscape:transform-center-y="9.3434991"
       ry="2.1759143" />
    <rect
       style="font-variation-settings:normal;opacity:1;fill:none;fill-opacity:1;fill-rule:evenodd;stroke:#ff0000;stroke-width:0.801273;stroke-linecap:butt;stroke-linejoin:miter;stroke-miterlimit:4;stroke-dasharray:none;stroke-dashoffset:0;stroke-opacity:1;stop-color:#000000;stop-opacity:1"
       id="rect2721"
       width="37.318542"
       height="4.8023715"
       x="169.0302"
       y="-198.85013"
       inkscape:transform-center-x="6.8422377"
       transform="matrix(-0.42130743,0.90691789,-0.97104103,-0.23891277,0,0)"
       inkscape:transform-center-y="14.728782"
       ry="2.4011858" />
    <rect
       style="font-variation-settings:normal;opacity:1;fill:none;fill-opacity:1;fill-rule:evenodd;stroke:#5aa02c;stroke-width:0.79401074;stroke-linecap:butt;stroke-linejoin:miter;stroke-miterlimit:4;stroke-dasharray:none;stroke-dashoffset:0;stroke-opacity:1;stop-color:#000000;stop-opacity:1"
       id="rect2723"
       width="40.520027"
       height="4.3431244"
       x="213.52072"
       y="141.53105"
       inkscape:transform-center-x="-15.067616"
       transform="matrix(0.85447743,0.51948851,-0.55010804,0.83509349,0,0)"
       inkscape:transform-center-y="9.1605014"
       ry="2.1715622" />
    <rect
       style="font-variation-settings:normal;opacity:1;fill:none;fill-opacity:1;fill-rule:evenodd;stroke:#2ad4ff;stroke-width:0.806397;stroke-linecap:butt;stroke-linejoin:miter;stroke-miterlimit:4;stroke-dasharray:none;stroke-dashoffset:0;stroke-opacity:1;stop-color:#000000;stop-opacity:1"
       id="rect2725"
       width="39.770741"
       height="4.5640802"
       x="-123.04054"
       y="287.01715"
       inkscape:transform-center-x="-13.547163"
       transform="matrix(0.78272743,-0.62236466,0.79674691,0.60431314,0,0)"
       inkscape:transform-center-y="-10.77166"
       ry="2.2820401" />
    <rect
       style="font-variation-settings:normal;opacity:1;fill:none;fill-opacity:1;fill-rule:evenodd;stroke-width:0.80639687;stroke-linecap:butt;stroke-linejoin:miter;stroke-miterlimit:4;stroke-dasharray:none;stroke-dashoffset:0;stroke-opacity:1;stop-color:#000000;stop-opacity:1;stroke:#0055d4"
       id="rect2727"
       width="39.770741"
       height="4.5640802"
       x="12.524734"
       y="273.9545"
       inkscape:transform-center-x="-16.424445"
       transform="matrix(0.94897079,-0.31536399,0.54045087,0.84137558,0,0)"
       inkscape:transform-center-y="-5.4582044"
       ry="2.2820401" />
    <path
       style="fill:#ffff00;fill-opacity:1;fill-rule:evenodd;stroke:#000000;stroke-width:0.79375;stroke-linecap:round;stroke-dasharray:none;stroke-opacity:1;paint-order:fill markers stroke"
       id="path14208"
       sodipodi:type="arc"
       sodipodi:cx="45.10881"
       sodipodi:cy="261.82993"
       sodipodi:rx="10.065602"
       sodipodi:ry="8.3258686"
       sodipodi:start="0"
       sodipodi:end="5.2897399"
       sodipodi:arc-type="slice"
       d="m 55.174413,261.82993 a 10.065602,8.3258686 0 0 1 -7.591317,8.0704 10.065602,8.3258686 0 0 1 -11.32345,-4.10274 10.065602,8.3258686 0 0 1 2.024348,-10.08744 10.065602,8.3258686 0 0 1 12.318684,-0.85657 l -5.493868,6.97635 z" />
    <path
       style="fill:#ff00ff;fill-opacity:1;fill-rule:evenodd;stroke:none;stroke-width:0.79375;stroke-linecap:round;stroke-dasharray:none;stroke-opacity:1;paint-order:fill markers stroke"
       id="path14314"
       sodipodi:type="arc"
       sodipodi:cx="104.63256"
       sodipodi:cy="267.29767"
       sodipodi:rx="10.438402"
       sodipodi:ry="10.065602"
       sodipodi:start="0"
       sodipodi:end="5.0066676"
       sodipodi:arc-type="slice"
       d="m 115.07096,267.29767 a 10.438402,10.065602 0 0 1 -7.16345,9.55738 10.438402,10.065602 0 0 1 -11.658389,-3.56032 10.438402,10.065602 0 0 1 -0.151947,-11.7914 10.438402,10.065602 0 0 1 11.563036,-3.83856 l -3.02765,9.6329 z" />
    <path
       style="fill:#ff00ff;fill-opacity:1;fill-rule:evenodd;stroke:none;stroke-width:0.834661;stroke-linecap:round;stroke-dasharray:none;stroke-opacity:1;paint-order:fill markers stroke"
       id="path14368"
       sodipodi:type="arc"
       sodipodi:cx="-247.57724"
       sodipodi:cy="143.2005"
       sodipodi:rx="10.343466"
       sodipodi:ry="10.429989"
       sodipodi:start="0.34983501"
       sodipodi:end="1.6337711"
       sodipodi:arc-type="slice"
       d="m -237.86029,146.7753 a 10.343466,10.429989 0 0 1 -10.3679,6.83451 l 0.65095,-10.40931 z"
       inkscape:transform-center-x="-8.815557"
       inkscape:transform-center-y="-3.6729908"
       transform="matrix(0.13540601,-0.9907902,0.99237063,0.12329044,0,0)" />
    <path
       style="fill:none;fill-opacity:1;fill-rule:evenodd;stroke:#000000;stroke-width:0.79375;stroke-linecap:round;stroke-dasharray:none;stroke-opacity:1;paint-order:fill markers stroke"
       id="path14370"
       sodipodi:type="arc"
       sodipodi:cx="180.80803"
       sodipodi:cy="272.51685"
       sodipodi:rx="13.296536"
       sodipodi:ry="11.30827"
       sodipodi:start="1.462825"
       sodipodi:end="4.0266122"
       sodipodi:arc-type="arc"
       d="m 182.24089,283.75927 a 13.296536,11.30827 0 0 1 -13.69591,-6.87136 13.296536,11.30827 0 0 1 3.84269,-13.12284"
       sodipodi:open="true" />
    <path
       style="fill:none;fill-opacity:1;fill-rule:evenodd;stroke:#000000;stroke-width:0.79375;stroke-linecap:round;stroke-dasharray:none;stroke-opacity:1;paint-order:fill markers stroke"
       id="path14372"
       sodipodi:type="arc"
       sodipodi:cx="153.84218"
       sodipodi:cy="181.42938"
       sodipodi:rx="7.9530683"
       sodipodi:ry="13.17227"
       sodipodi:start="0"
       sodipodi:end="3.2061927"
       sodipodi:open="true"
       sodipodi:arc-type="chord"
       d="m 161.79525,181.42938 a 7.9530683,13.17227 0 0 1 -4.12576,11.54669 7.9530683,13.17227 0 0 1 -8.09669,-0.4333 7.9530683,13.17227 0 0 1 -3.6671,-11.96373 z" />
    <path
       sodipodi:type="spiral"
       style="fill:none;fill-rule:evenodd;stroke:#000000;stroke-width:0.264583"
       id="path14427"
       sodipodi:cx="13.17227"
       sodipodi:cy="160.8011"
       sodipodi:expansion="1"
       sodipodi:revolution="3"
       sodipodi:radius="14.828928"
       sodipodi:argument="-18.159109"
       sodipodi:t0="0"
       d="m 13.17227,160.8011 c 0.573209,0.47352 -0.355496,1.00629 -0.787023,0.95271 -1.169412,-0.1452 -1.493209,-1.59452 -1.118399,-2.52675 0.670447,-1.66755 2.786769,-2.05698 4.26649,-1.28409 2.17155,1.13424 2.635555,3.99451 1.449776,6.00622 -1.580456,2.68131 -5.207653,3.22034 -7.745958,1.61547 -3.1941973,-2.01957 -3.8083049,-6.42336 -1.7811527,-9.48569 2.455153,-3.7089 7.6404947,-4.39812 11.2254257,-1.94685 4.224717,2.88874 4.989074,8.85853 2.112529,12.96516 -3.321084,4.74127 -10.077156,5.58081 -14.704893,2.27822 -5.25832841,-3.75261 -6.17307577,-11.2962 -2.443906,-16.44463 4.1835649,-5.77575 12.515561,-6.76573 18.184361,-2.60959 6.293443,4.61411 7.358693,13.73515 2.775283,19.92409" />
    <path
       style="fill:#29aa00;fill-opacity:1;fill-rule:evenodd;stroke:#000000;stroke-width:0.79375;stroke-linecap:round;stroke-dasharray:none;stroke-opacity:1;paint-order:fill markers stroke"
       d="m 32.060808,221.69178 c 0,0 3.371128,-13.61529 8.698669,-13.4208 4.816746,0.17585 6.958934,12.67521 6.958934,12.67521 11.118297,-9.91467 14.56754,-0.17333 15.657604,6.95893 0.996438,6.51967 -11.432536,9.44427 -11.432536,9.44427 0,0 -3.729244,15.53939 -10.686937,11.68107 -10.593925,5.26579 -8.002911,-7.28383 -4.970666,-18.88854 0,0 -18.710733,15.6304 -18.391472,-5.9648 0.06737,-4.5567 14.166404,-2.48534 14.166404,-2.48534 z"
       id="path14590"
       sodipodi:nodetypes="cscscccsc" />
  </g>
</svg>
