<?xml version="1.0" encoding="UTF-8" standalone="no"?>
<!-- Created with Inkscape (http://www.inkscape.org/) -->

<svg
   width="210mm"
   height="297mm"
   viewBox="0 0 210 297"
   version="1.1"
   id="svg5"
   inkscape:version="1.2.2 (b0a8486541, 2022-12-01)"
   sodipodi:docname="noche estrellada.svg"
   xmlns:inkscape="http://www.inkscape.org/namespaces/inkscape"
   xmlns:sodipodi="http://sodipodi.sourceforge.net/DTD/sodipodi-0.dtd"
   xmlns="http://www.w3.org/2000/svg"
   xmlns:svg="http://www.w3.org/2000/svg">
  <sodipodi:namedview
     id="namedview7"
     pagecolor="#ffffff"
     bordercolor="#000000"
     borderopacity="0.25"
     inkscape:showpageshadow="2"
     inkscape:pageopacity="0.0"
     inkscape:pagecheckerboard="0"
     inkscape:deskcolor="#d1d1d1"
     inkscape:document-units="mm"
     showgrid="false"
     inkscape:zoom="0.70199214"
     inkscape:cx="275.64411"
     inkscape:cy="333.33706"
     inkscape:window-width="1870"
     inkscape:window-height="1011"
     inkscape:window-x="0"
     inkscape:window-y="0"
     inkscape:window-maximized="1"
     inkscape:current-layer="layer1" />
  <defs
     id="defs2" />
  <g
     inkscape:label="Capa 1"
     inkscape:groupmode="layer"
     id="layer1">
    <path
       style="fill:#214478;fill-rule:evenodd;stroke:#000000;stroke-width:0.79375;stroke-linecap:round;paint-order:fill markers stroke"
       d="M 1.8256266,125.81364 C 1.3427189,-0.01324743 1.3427189,-0.01324743 1.3427189,-0.01324743 l 209.2933711,0.84656 0.93048,126.47321743 z"
       id="path4470" />
    <path
       sodipodi:type="star"
       style="fill:#ffdd55;fill-rule:evenodd;stroke:#000000;stroke-width:0.79375;stroke-linecap:round;paint-order:fill markers stroke"
       id="path4335"
       inkscape:flatsided="false"
       sodipodi:sides="7"
       sodipodi:cx="20.806253"
       sodipodi:cy="42.498817"
       sodipodi:r1="32.15189"
       sodipodi:r2="14.097302"
       sodipodi:arg1="1.2860809"
       sodipodi:arg2="1.7348799"
       inkscape:rounded="0"
       inkscape:randomized="0"
       d="M 29.837216,73.356324 18.503483,56.406771 2.3115961,68.798849 8.4968234,49.369907 -11.28717,44.436914 7.7594154,37.158972 -0.71893314,18.615552 16.846543,28.969049 26.058208,10.778777 28.915413,30.967318 48.88052,26.827839 34.877921,41.649041 50.562337,54.677467 30.244176,52.970663 Z"
       inkscape:transform-center-x="-0.20530975"
       inkscape:transform-center-y="-0.40268855"
       transform="matrix(0.57184939,0,0,0.65593184,6.1565105,-5.4623428)" />
    <path
       sodipodi:type="star"
       style="fill:#ffe680;fill-rule:evenodd;stroke:#000000;stroke-width:0.79375;stroke-linecap:round;paint-order:fill markers stroke"
       id="path4337"
       inkscape:flatsided="false"
       sodipodi:sides="7"
       sodipodi:cx="20.806253"
       sodipodi:cy="42.498817"
       sodipodi:r1="32.15189"
       sodipodi:r2="14.097302"
       sodipodi:arg1="1.2860809"
       sodipodi:arg2="1.7348799"
       inkscape:rounded="0"
       inkscape:randomized="0"
       d="M 29.837216,73.356324 18.503483,56.406771 2.3115961,68.798849 8.4968234,49.369907 -11.28717,44.436914 7.7594154,37.158972 -0.71893314,18.615552 16.846543,28.969049 26.058208,10.778777 28.915413,30.967318 48.88052,26.827839 34.877921,41.649041 50.562337,54.677467 30.244176,52.970663 Z"
       inkscape:transform-center-x="-0.22774014"
       inkscape:transform-center-y="-0.32288588"
       transform="matrix(0.63432505,0,0,0.5259428,97.977358,1.5689901)" />
    <path
       sodipodi:type="star"
       style="fill:#c8ab37;fill-rule:evenodd;stroke:#000000;stroke-width:0.79375;stroke-linecap:round;paint-order:fill markers stroke"
       id="path4339"
       inkscape:flatsided="false"
       sodipodi:sides="9"
       sodipodi:cx="20.806253"
       sodipodi:cy="42.498817"
       sodipodi:r1="32.15189"
       sodipodi:r2="14.097302"
       sodipodi:arg1="1.2860809"
       sodipodi:arg2="1.5688629"
       inkscape:rounded="0"
       inkscape:randomized="0"
       d="M 29.837216,73.356324 20.83351,56.596094 7.889549,71.94203 11.765578,53.315477 -8.0142484,56.750929 6.9278796,44.973626 -10.432613,34.891107 8.5840262,35.473784 1.7660356,16.591017 15.959089,29.261033 l 6.914725,-18.847558 2.728379,18.828914 17.411964,-9.993368 -10.012932,16.177554 19.761951,3.53683 -18.069083,5.956537 12.865102,15.412106 -17.670508,-7.05161 z"
       inkscape:transform-center-x="-0.24707142"
       inkscape:transform-center-y="-0.39764589"
       transform="matrix(0.68816933,0,0,0.64771832,56.818037,72.214101)" />
    <path
       sodipodi:type="star"
       style="fill:#decd87;fill-rule:evenodd;stroke:#000000;stroke-width:0.79375;stroke-linecap:round;paint-order:fill markers stroke"
       id="path4341"
       inkscape:flatsided="false"
       sodipodi:sides="6"
       sodipodi:cx="20.806253"
       sodipodi:cy="42.498817"
       sodipodi:r1="32.15189"
       sodipodi:r2="14.097302"
       sodipodi:arg1="1.2860809"
       sodipodi:arg2="1.8096797"
       inkscape:rounded="0"
       inkscape:randomized="0"
       d="M 29.837216,73.356324 17.47058,56.195796 -1.4016502,65.748614 7.2764854,46.458529 -10.432613,34.891107 10.612159,32.76155 11.775291,11.641311 24.141927,28.801839 43.014157,19.249021 34.336021,38.539106 52.04512,50.106528 31.000348,52.236085 Z"
       inkscape:transform-center-x="-0.19045588"
       inkscape:transform-center-y="-0.32435964"
       transform="matrix(0.53047985,0,0,0.5283428,111.55062,76.011392)" />
    <path
       sodipodi:type="star"
       style="fill:#ffe680;fill-rule:evenodd;stroke:#000000;stroke-width:0.79375;stroke-linecap:round;paint-order:fill markers stroke"
       id="path4343"
       inkscape:flatsided="false"
       sodipodi:sides="8"
       sodipodi:cx="20.806253"
       sodipodi:cy="42.498817"
       sodipodi:r1="32.15189"
       sodipodi:r2="14.097302"
       sodipodi:arg1="1.2860809"
       sodipodi:arg2="1.67878"
       inkscape:rounded="0"
       inkscape:randomized="0"
       d="M 29.837216,73.356324 19.286932,56.514009 5.3725559,70.704225 9.8216936,51.334732 -10.051253,51.52978 6.7910618,40.979496 -7.3991538,27.06512 11.970339,31.514258 11.775291,11.641311 22.325575,28.483626 36.239951,14.29341 31.790813,33.662903 51.66376,33.467855 34.821445,44.018139 49.011661,57.932515 29.642168,53.483377 Z"
       inkscape:transform-center-x="-0.17702727"
       inkscape:transform-center-y="-0.26795945"
       transform="matrix(0.4930741,0,0,0.43647441,6.9536798,53.136821)" />
    <ellipse
       style="fill:#f3dacb;fill-opacity:1;fill-rule:evenodd;stroke:none;stroke-width:0.79375;stroke-linecap:round;stroke-dasharray:none;stroke-opacity:1;paint-order:fill markers stroke"
       id="path4579"
       cx="185.82303"
       cy="35.674805"
       rx="13.604597"
       ry="15.338208" />
    <path
       sodipodi:type="star"
       style="fill:#e9ddaf;fill-rule:evenodd;stroke:#000000;stroke-width:0.79375;stroke-linecap:round;paint-order:fill markers stroke"
       id="path4737"
       inkscape:flatsided="false"
       sodipodi:sides="8"
       sodipodi:cx="20.806253"
       sodipodi:cy="42.498817"
       sodipodi:r1="32.15189"
       sodipodi:r2="14.097302"
       sodipodi:arg1="1.2860809"
       sodipodi:arg2="1.67878"
       inkscape:rounded="0"
       inkscape:randomized="0"
       d="M 29.837216,73.356324 19.286932,56.514009 5.3725559,70.704225 9.8216936,51.334732 -10.051253,51.52978 6.7910618,40.979496 -7.3991538,27.06512 11.970339,31.514258 11.775291,11.641311 22.325575,28.483626 36.239951,14.29341 31.790813,33.662903 51.66376,33.467855 34.821445,44.018139 49.011661,57.932515 29.642168,53.483377 Z"
       inkscape:transform-center-x="-0.11880125"
       inkscape:transform-center-y="-0.20193635"
       transform="matrix(0.33088924,0,0,0.32893012,131.72777,38.32995)" />
    <path
       sodipodi:type="star"
       style="fill:#e9ddaf;fill-rule:evenodd;stroke:#000000;stroke-width:0.79375;stroke-linecap:round;paint-order:fill markers stroke"
       id="path4739"
       inkscape:flatsided="false"
       sodipodi:sides="9"
       sodipodi:cx="20.806253"
       sodipodi:cy="42.498817"
       sodipodi:r1="32.15189"
       sodipodi:r2="14.097302"
       sodipodi:arg1="1.2860809"
       sodipodi:arg2="1.5688629"
       inkscape:rounded="0"
       inkscape:randomized="0"
       d="M 29.837216,73.356324 20.83351,56.596094 7.889549,71.94203 11.765578,53.315477 -8.0142484,56.750929 6.9278796,44.973626 -10.432613,34.891107 8.5840262,35.473784 1.7660356,16.591017 15.959089,29.261033 l 6.914725,-18.847558 2.728379,18.828914 17.411964,-9.993368 -10.012932,16.177554 19.761951,3.53683 -18.069083,5.956537 12.865102,15.412106 -17.670508,-7.05161 z"
       inkscape:transform-center-x="-0.11880125"
       inkscape:transform-center-y="-0.20193635"
       transform="matrix(0.33088924,0,0,0.32893012,46.64621,51.671747)" />
    <path
       sodipodi:type="star"
       style="fill:#ffcc00;fill-rule:evenodd;stroke:#000000;stroke-width:0.79375;stroke-linecap:round;paint-order:fill markers stroke"
       id="path4741"
       inkscape:flatsided="false"
       sodipodi:sides="7"
       sodipodi:cx="20.806253"
       sodipodi:cy="42.498817"
       sodipodi:r1="32.15189"
       sodipodi:r2="14.097302"
       sodipodi:arg1="1.2860809"
       sodipodi:arg2="1.7348799"
       inkscape:rounded="0"
       inkscape:randomized="0"
       d="M 29.837216,73.356324 18.503483,56.406771 2.3115961,68.798849 8.4968234,49.369907 -11.28717,44.436914 7.7594154,37.158972 -0.71893314,18.615552 16.846543,28.969049 26.058208,10.778777 28.915413,30.967318 48.88052,26.827839 34.877921,41.649041 50.562337,54.677467 30.244176,52.970663 Z"
       inkscape:transform-center-x="-0.17259108"
       inkscape:transform-center-y="-0.29281068"
       transform="matrix(0.48071701,0,0,0.47695306,175.63838,75.978821)" />
    <path
       sodipodi:type="star"
       style="fill:#ffdd55;fill-rule:evenodd;stroke:#000000;stroke-width:0.79375;stroke-linecap:round;paint-order:fill markers stroke"
       id="path4743"
       inkscape:flatsided="false"
       sodipodi:sides="10"
       sodipodi:cx="20.806253"
       sodipodi:cy="42.498817"
       sodipodi:r1="32.15189"
       sodipodi:r2="14.097302"
       sodipodi:arg1="1.2860809"
       sodipodi:arg2="1.6002402"
       inkscape:rounded="0"
       inkscape:randomized="0"
       d="M 29.837216,73.356324 20.391234,56.59001 9.9748681,72.771332 12.187901,53.654889 -5.7502587,60.623267 7.2764854,46.458529 -11.331701,41.552279 7.5329813,37.749693 -4.6375362,22.842837 12.859416,30.854861 11.775291,11.641311 21.221273,28.407625 31.637639,12.226303 29.424606,31.342746 47.362766,24.374368 34.336022,38.539106 52.944207,43.445356 34.079526,47.247942 46.250043,62.154798 28.753091,54.142774 Z"
       inkscape:transform-center-x="-0.17259108"
       inkscape:transform-center-y="-0.29281068"
       transform="matrix(0.48071701,0,0,0.47695306,142.65196,3.0568171)" />
    <path
       sodipodi:type="star"
       style="fill:#ffdd55;fill-rule:evenodd;stroke:#000000;stroke-width:0.79375;stroke-linecap:round;paint-order:fill markers stroke"
       id="path4745"
       inkscape:flatsided="false"
       sodipodi:sides="9"
       sodipodi:cx="20.806253"
       sodipodi:cy="42.498817"
       sodipodi:r1="32.15189"
       sodipodi:r2="14.097302"
       sodipodi:arg1="1.2860809"
       sodipodi:arg2="1.5688629"
       inkscape:rounded="0"
       inkscape:randomized="0"
       d="M 29.837216,73.356324 20.83351,56.596094 7.889549,71.94203 11.765578,53.315477 -8.0142484,56.750929 6.9278796,44.973626 -10.432613,34.891107 8.5840262,35.473784 1.7660356,16.591017 15.959089,29.261033 l 6.914725,-18.847558 2.728379,18.828914 17.411964,-9.993368 -10.012932,16.177554 19.761951,3.53683 -18.069083,5.956537 12.865102,15.412106 -17.670508,-7.05161 z"
       inkscape:transform-center-x="-0.13414612"
       inkscape:transform-center-y="-0.22954107"
       transform="matrix(0.3736477,0,0,0.37389505,147.28078,64.604266)" />
    <path
       sodipodi:type="star"
       style="fill:#ffdd55;fill-rule:evenodd;stroke:#000000;stroke-width:0.79375;stroke-linecap:round;paint-order:fill markers stroke"
       id="path4747"
       inkscape:flatsided="false"
       sodipodi:sides="9"
       sodipodi:cx="20.806253"
       sodipodi:cy="42.498817"
       sodipodi:r1="32.15189"
       sodipodi:r2="14.097302"
       sodipodi:arg1="1.2860809"
       sodipodi:arg2="1.5688629"
       inkscape:rounded="0"
       inkscape:randomized="0"
       d="M 29.837216,73.356324 20.83351,56.596094 7.889549,71.94203 11.765578,53.315477 -8.0142484,56.750929 6.9278796,44.973626 -10.432613,34.891107 8.5840262,35.473784 1.7660356,16.591017 15.959089,29.261033 l 6.914725,-18.847558 2.728379,18.828914 17.411964,-9.993368 -10.012932,16.177554 19.761951,3.53683 -18.069083,5.956537 12.865102,15.412106 -17.670508,-7.05161 z"
       inkscape:transform-center-x="-0.12871926"
       inkscape:transform-center-y="-0.21297886"
       transform="matrix(0.35851978,0,0,0.34691686,90.096111,48.470985)" />
    <path
       sodipodi:type="star"
       style="fill:#ffdd55;fill-rule:evenodd;stroke:#000000;stroke-width:0.79375;stroke-linecap:round;paint-order:fill markers stroke"
       id="path4749"
       inkscape:flatsided="false"
       sodipodi:sides="7"
       sodipodi:cx="20.806253"
       sodipodi:cy="42.498817"
       sodipodi:r1="32.15189"
       sodipodi:r2="14.097302"
       sodipodi:arg1="1.2860809"
       sodipodi:arg2="1.7348799"
       inkscape:rounded="0"
       inkscape:randomized="0"
       d="M 29.837216,73.356324 18.503483,56.406771 2.3115961,68.798849 8.4968234,49.369907 -11.28717,44.436914 7.7594154,37.158972 -0.71893314,18.615552 16.846543,28.969049 26.058208,10.778777 28.915413,30.967318 48.88052,26.827839 34.877921,41.649041 50.562337,54.677467 30.244176,52.970663 Z"
       inkscape:transform-center-x="-0.13896588"
       inkscape:transform-center-y="-0.24470334"
       transform="matrix(0.38706236,0,0,0.39859166,15.790757,91.437999)" />
    <path
       sodipodi:type="star"
       style="fill:#ffcc00;fill-rule:evenodd;stroke:#000000;stroke-width:0.79375;stroke-linecap:round;paint-order:fill markers stroke"
       id="path4751"
       inkscape:flatsided="false"
       sodipodi:sides="7"
       sodipodi:cx="20.806253"
       sodipodi:cy="42.498817"
       sodipodi:r1="32.15189"
       sodipodi:r2="14.097302"
       sodipodi:arg1="1.2860809"
       sodipodi:arg2="1.7348799"
       inkscape:rounded="0"
       inkscape:randomized="0"
       d="M 29.837216,73.356324 18.503483,56.406771 2.3115961,68.798849 8.4968234,49.369907 -11.28717,44.436914 7.7594154,37.158972 -0.71893314,18.615552 16.846543,28.969049 26.058208,10.778777 28.915413,30.967318 48.88052,26.827839 34.877921,41.649041 50.562337,54.677467 30.244176,52.970663 Z"
       inkscape:transform-center-x="-0.17259108"
       inkscape:transform-center-y="-0.29281068"
       transform="matrix(0.48071701,0,0,0.47695306,60.054133,7.3661792)" />
  </g>
</svg>
