<?xml version="1.0" encoding="UTF-8" standalone="no"?>
<!-- Created with Inkscape (http://www.inkscape.org/) -->

<svg
   width="210mm"
   height="297mm"
   viewBox="0 0 210 297"
   version="1.1"
   id="svg41109"
   inkscape:version="1.2.2 (b0a8486541, 2022-12-01)"
   sodipodi:docname="nube y mano.svg"
   xmlns:inkscape="http://www.inkscape.org/namespaces/inkscape"
   xmlns:sodipodi="http://sodipodi.sourceforge.net/DTD/sodipodi-0.dtd"
   xmlns="http://www.w3.org/2000/svg"
   xmlns:svg="http://www.w3.org/2000/svg">
  <sodipodi:namedview
     id="namedview41111"
     pagecolor="#ffffff"
     bordercolor="#000000"
     borderopacity="0.25"
     inkscape:showpageshadow="2"
     inkscape:pageopacity="0.0"
     inkscape:pagecheckerboard="0"
     inkscape:deskcolor="#d1d1d1"
     inkscape:document-units="mm"
     showgrid="false"
     inkscape:zoom="1.9855336"
     inkscape:cx="554.7627"
     inkscape:cy="314.2732"
     inkscape:window-width="1870"
     inkscape:window-height="1011"
     inkscape:window-x="0"
     inkscape:window-y="0"
     inkscape:window-maximized="1"
     inkscape:current-layer="layer1" />
  <defs
     id="defs41106" />
  <g
     inkscape:label="Capa 1"
     inkscape:groupmode="layer"
     id="layer1">
    <path
       style="fill:#f2f2f2;fill-rule:evenodd;stroke:#000000;stroke-width:0.529167;stroke-linecap:round;paint-order:fill markers stroke"
       d="m 32.048579,101.46214 60.613747,-0.7273 c 0,0 0.413559,-14.7597 -4.854106,-15.067314 -3.825637,-0.223404 -5.048722,1.36823 -7.299562,0.43285 -3.579478,-1.487521 -3.58445,-8.495745 -7.701493,-8.712948 -9.798412,-0.516936 -10.100139,9.349156 -9.306279,10.370735 3.280375,4.221348 -0.488152,-12.773052 -8.911708,-13.334436 -10.426837,-0.694891 -5.806669,10.46938 -5.806669,10.46938 v 0 c 0,0 -6.639151,-17.460423 -18.862847,-13.932181 -5.132458,1.48143 -6.380345,10.583082 -4.388865,16.200965 1.628745,4.594622 -14.194345,-1.128018 -11.030316,9.602207 2.281343,7.736762 17.548098,4.698042 17.548098,4.698042 z"
       id="path43462"
       sodipodi:nodetypes="ccsasssccsssc" />
    <path
       style="fill:#d38d5f;fill-rule:evenodd;stroke:#c26f00;stroke-width:0.529167;stroke-linecap:round;paint-order:fill markers stroke;stroke-opacity:1"
       d="m 155.24893,128.2326 -5.57064,-25.65043 c 0,0 -5.61514,-1.45532 -9.44158,-4.153425 -1.38834,-0.978952 -3.38222,-4.240963 -1.887,-5.448745 2.20571,-1.781699 5.99588,3.420325 7.27274,4.411777 2.74364,2.13038 4.06237,3.313783 4.06237,3.313783 0,0 -2.08362,-7.038507 -2.23557,-10.668844 -0.0717,-1.71196 -1.05999,-4.819733 0.63013,-5.101609 1.73693,-0.289683 1.75747,3.07833 2.31402,4.748985 0.88394,2.653398 1.58239,8.239714 1.58239,8.239714 0,0 -0.35191,-6.610273 0.61966,-9.701672 0.40638,-1.293033 0.77173,-3.698711 2.10879,-3.476598 1.46372,0.243153 0.8435,2.868238 0.95403,4.347891 0.17512,2.344105 -0.47118,7.036151 -0.47118,7.036151 0,0 1.92609,-4.594975 3.54846,-6.427113 0.91353,-1.031644 2.13588,-3.071804 3.35064,-2.421287 1.41657,0.758586 0.25388,3.271191 -0.18439,4.817165 -0.77714,2.74131 -4.20447,7.442515 -4.20447,7.442515 0,0 3.71104,-5.430727 6.63668,-6.263898 1.04613,-0.29792 2.80154,-0.35975 3.19707,0.653517 0.50695,1.29874 -2.44671,3.392226 -2.44671,3.392226 l -5.30932,4.512137 5.38232,26.02973 z"
       id="path43464"
       sodipodi:nodetypes="ccsascaaacaaacaaacaacccc" />
  </g>
</svg>
