<?xml version="1.0" encoding="UTF-8" standalone="no"?>
<!-- Created with Inkscape (http://www.inkscape.org/) -->

<svg
   width="210mm"
   height="297mm"
   viewBox="0 0 210 297"
   version="1.1"
   id="svg37624"
   inkscape:version="1.2.2 (b0a8486541, 2022-12-01)"
   sodipodi:docname="flor.svg"
   xmlns:inkscape="http://www.inkscape.org/namespaces/inkscape"
   xmlns:sodipodi="http://sodipodi.sourceforge.net/DTD/sodipodi-0.dtd"
   xmlns="http://www.w3.org/2000/svg"
   xmlns:svg="http://www.w3.org/2000/svg">
  <sodipodi:namedview
     id="namedview37626"
     pagecolor="#ffffff"
     bordercolor="#000000"
     borderopacity="0.25"
     inkscape:showpageshadow="2"
     inkscape:pageopacity="0.0"
     inkscape:pagecheckerboard="0"
     inkscape:deskcolor="#d1d1d1"
     inkscape:document-units="mm"
     showgrid="false"
     inkscape:zoom="0.70199214"
     inkscape:cx="398.1526"
     inkscape:cy="561.25984"
     inkscape:window-width="1870"
     inkscape:window-height="1011"
     inkscape:window-x="0"
     inkscape:window-y="0"
     inkscape:window-maximized="1"
     inkscape:current-layer="layer1" />
  <defs
     id="defs37621" />
  <g
     inkscape:label="Capa 1"
     inkscape:groupmode="layer"
     id="layer1">
    <path
       style="fill:#f2f2f2;fill-opacity:1;fill-rule:evenodd;stroke:#000000;stroke-width:0.52916667;stroke-linecap:round;paint-order:fill markers stroke;stroke-dasharray:none"
       d="m 94.022712,115.17495 c 0,0 -14.28884,-4.94307 -17.30812,-11.0951 -1.01303,-2.06414 -0.97064,-5.199408 0.60805,-6.871125 1.8175,-1.924604 5.52946,-2.411224 7.85756,-1.151321 6.17493,3.341698 8.84251,19.117546 8.84251,19.117546 z"
       id="path39629"
       sodipodi:nodetypes="csssc" />
    <path
       style="fill:#f2f2f2;fill-opacity:1;fill-rule:evenodd;stroke:#000000;stroke-width:0.529167;stroke-linecap:round;stroke-dasharray:none;paint-order:fill markers stroke"
       d="m 96.246522,114.93619 c 0,0 -6.399207,-14.21925 -4.064016,-20.435049 0.783512,-2.085534 3.076575,-4.023784 5.384746,-3.847194 2.657338,0.203299 5.598108,2.783879 6.312598,5.386408 1.89508,6.902815 -7.633328,18.895835 -7.633328,18.895835 z"
       id="path39955"
       sodipodi:nodetypes="csssc" />
    <path
       style="fill:#f2f2f2;fill-opacity:1;fill-rule:evenodd;stroke:#000000;stroke-width:0.529167;stroke-linecap:round;stroke-dasharray:none;paint-order:fill markers stroke"
       d="m 101.68336,115.87967 c 0,0 1.77227,-15.01546 7.13609,-19.280776 1.79968,-1.431106 4.87145,-2.060332 6.84215,-0.875763 2.26882,1.363759 3.53818,4.885719 2.80542,7.429419 -1.94354,6.74682 -16.78366,12.72712 -16.78366,12.72712 z"
       id="path39957"
       sodipodi:nodetypes="csssc" />
    <path
       style="fill:#f2f2f2;fill-opacity:1;fill-rule:evenodd;stroke:#000000;stroke-width:0.529167;stroke-linecap:round;stroke-dasharray:none;paint-order:fill markers stroke"
       d="m 103.49687,119.0947 c 0,0 11.66931,-9.61417 18.49309,-8.98208 2.28953,0.21208 4.94259,1.88328 5.5457,4.1021 0.69434,2.55446 -0.82623,5.97547 -3.11534,7.30488 -6.07154,3.52608 -20.92345,-2.4249 -20.92345,-2.4249 z"
       id="path39959"
       sodipodi:nodetypes="csssc" />
    <path
       style="fill:#f2f2f2;fill-opacity:1;fill-rule:evenodd;stroke:#000000;stroke-width:0.529167;stroke-linecap:round;stroke-dasharray:none;paint-order:fill markers stroke"
       d="m 101.85495,122.77752 c 0,0 15.0951,0.86192 19.67666,5.95827 1.53722,1.70994 2.35087,4.73808 1.28752,6.77675 -1.22421,2.34706 -4.66305,3.82686 -7.24637,3.24911 -6.8519,-1.53239 -13.71781,-15.98413 -13.71781,-15.98413 z"
       id="path39961"
       sodipodi:nodetypes="csssc" />
    <path
       style="fill:#f2f2f2;fill-opacity:1;fill-rule:evenodd;stroke:#000000;stroke-width:0.529167;stroke-linecap:round;stroke-dasharray:none;paint-order:fill markers stroke"
       d="m 99.045661,124.65563 c 0,0 10.444699,10.93221 10.315139,17.78398 -0.0435,2.29893 -1.51545,5.06748 -3.68401,5.83182 -2.49661,0.87995 -6.020004,-0.38544 -7.513831,-2.5708 -3.962188,-5.79638 0.882702,-21.045 0.882702,-21.045 z"
       id="path39963"
       sodipodi:nodetypes="csssc" />
    <path
       style="fill:#f2f2f2;fill-opacity:1;fill-rule:evenodd;stroke:#000000;stroke-width:0.529167;stroke-linecap:round;stroke-dasharray:none;paint-order:fill markers stroke"
       d="m 95.330811,123.96249 c 0,0 1.781258,15.0144 -2.4389,20.41382 -1.415954,1.81164 -4.256026,3.14041 -6.448778,2.44853 -2.524456,-0.79655 -4.580777,-3.92499 -4.461951,-6.56945 0.315164,-7.01409 13.349629,-16.2929 13.349629,-16.2929 z"
       id="path39965"
       sodipodi:nodetypes="csssc" />
    <path
       style="fill:#f2f2f2;fill-opacity:1;fill-rule:evenodd;stroke:#000000;stroke-width:0.529167;stroke-linecap:round;stroke-dasharray:none;paint-order:fill markers stroke"
       d="m 91.965719,122.06907 c 0,0 -7.196963,13.29695 -13.757503,15.27755 -2.201211,0.66454 -5.288007,0.11377 -6.68129,-1.71534 -1.604052,-2.1058 -1.481674,-5.84753 0.13942,-7.94023 4.299734,-5.5506 20.299373,-5.62198 20.299373,-5.62198 z"
       id="path39983"
       sodipodi:nodetypes="csssc" />
    <path
       style="fill:#f2f2f2;fill-opacity:1;fill-rule:evenodd;stroke:#000000;stroke-width:0.529167;stroke-linecap:round;stroke-dasharray:none;paint-order:fill markers stroke"
       d="m 92.310887,118.33544 c 0,0 -13.877477,6.00173 -20.258464,3.50244 -2.140968,-0.83858 -4.226637,-3.17987 -4.1909,-5.47891 0.04114,-2.64682 2.450627,-5.51211 5.018584,-6.15471 6.811158,-1.70441 19.43078,8.13118 19.43078,8.13118 z"
       id="path39985"
       sodipodi:nodetypes="csssc" />
    <ellipse
       style="fill:#ffff00;fill-opacity:1;fill-rule:evenodd;stroke:#000000;stroke-width:0.641806;stroke-linecap:round;stroke-dasharray:none;stroke-opacity:1;paint-order:fill markers stroke"
       id="path39635"
       cx="96.70594"
       cy="119.48946"
       rx="7.2233663"
       ry="6.1854095" />
  </g>
</svg>
