<?xml version="1.0" encoding="UTF-8" standalone="no"?>
<!-- Created with Inkscape (http://www.inkscape.org/) -->

<svg
   width="210mm"
   height="297mm"
   viewBox="0 0 210 297"
   version="1.1"
   id="svg5"
   inkscape:version="1.2.2 (b0a8486541, 2022-12-01)"
   sodipodi:docname="eva.svg"
   xmlns:inkscape="http://www.inkscape.org/namespaces/inkscape"
   xmlns:sodipodi="http://sodipodi.sourceforge.net/DTD/sodipodi-0.dtd"
   xmlns="http://www.w3.org/2000/svg"
   xmlns:svg="http://www.w3.org/2000/svg">
  <sodipodi:namedview
     id="namedview7"
     pagecolor="#ffffff"
     bordercolor="#000000"
     borderopacity="0.25"
     inkscape:showpageshadow="2"
     inkscape:pageopacity="0.0"
     inkscape:pagecheckerboard="0"
     inkscape:deskcolor="#d1d1d1"
     inkscape:document-units="mm"
     showgrid="false"
     inkscape:zoom="0.43206369"
     inkscape:cx="396.93222"
     inkscape:cy="629.53681"
     inkscape:window-width="1230"
     inkscape:window-height="651"
     inkscape:window-x="50"
     inkscape:window-y="32"
     inkscape:window-maximized="1"
     inkscape:current-layer="layer1" />
  <defs
     id="defs2" />
  <g
     inkscape:label="Capa 1"
     inkscape:groupmode="layer"
     id="layer1">
    <g
       id="g1171"
       transform="matrix(-1.8319318,-0.06903395,0.07546016,-1.675924,273.28888,261.07179)"
       style="fill:#e3dbdb">
      <path
         style="fill:#e3dbdb;fill-rule:evenodd;stroke:#000000;stroke-width:0.79375;stroke-linecap:round;paint-order:fill markers stroke"
         id="path788"
         sodipodi:type="arc"
         sodipodi:cx="97.979378"
         sodipodi:cy="74.096909"
         sodipodi:rx="16.534021"
         sodipodi:ry="20.820618"
         sodipodi:start="6.2480962"
         sodipodi:end="3.0962456"
         sodipodi:arc-type="slice"
         d="M 114.50322,73.366482 A 16.534021,20.820618 0 0 1 98.644165,94.90069 16.534021,20.820618 0 0 1 81.462353,75.040739 l 16.517025,-0.94383 z" />
    </g>
    <g
       id="g1168"
       transform="matrix(1.0143469,0.33141665,-1.5160489,0.22525749,394.0912,142.28846)"
       style="fill:#e3dbdb">
      <ellipse
         style="fill:#e3dbdb;fill-rule:evenodd;stroke:#000000;stroke-width:0.79375;stroke-linecap:round;paint-order:fill markers stroke"
         id="path952"
         cx="89.406189"
         cy="253.52165"
         rx="27.556702"
         ry="26.94433" />
      <ellipse
         style="fill:#e3dbdb;fill-opacity:1;fill-rule:evenodd;stroke:#000000;stroke-width:0.79375;stroke-linecap:round;paint-order:fill markers stroke"
         id="path954"
         cx="89.406189"
         cy="253.52165"
         rx="9.1855669"
         ry="8.5731955" />
    </g>
    <g
       id="g1174"
       transform="translate(1.2247423,23.270103)"
       style="fill:#e3dbdb">
      <path
         style="fill:#e3dbdb;fill-rule:evenodd;stroke:#000000;stroke-width:1.04977;stroke-linecap:round;paint-order:fill markers stroke"
         id="path790"
         sodipodi:type="arc"
         sodipodi:cx="97.979385"
         sodipodi:cy="108.51771"
         sodipodi:rx="31.102917"
         sodipodi:ry="98.948105"
         sodipodi:start="0"
         sodipodi:end="3.1415927"
         sodipodi:arc-type="slice"
         d="m 129.0823,108.51771 a 31.102917,98.948105 0 0 1 -15.55146,85.69157 31.102917,98.948105 0 0 1 -31.102914,0 31.102917,98.948105 0 0 1 -15.551457,-85.69157 h 31.102916 z" />
    </g>
    <path
       style="fill:#040404;fill-opacity:1;fill-rule:evenodd;stroke:#000000;stroke-width:0.79375;stroke-linecap:round;paint-order:fill markers stroke"
       id="path3401"
       sodipodi:type="arc"
       sodipodi:cx="-101.24775"
       sodipodi:cy="-120.36543"
       sodipodi:rx="22.045362"
       sodipodi:ry="19.595877"
       sodipodi:start="0"
       sodipodi:end="3.1587771"
       sodipodi:arc-type="slice"
       d="m -79.202387,-120.36543 a 22.045362,19.595877 0 0 1 -11.132222,17.02637 22.045362,19.595877 0 0 1 -22.153811,-0.16921 22.045362,19.595877 0 0 1 -10.80144,-17.19389 l 22.04211,0.33673 z"
       transform="rotate(-178.65128)" />
    <ellipse
       style="fill:#0000ff;fill-opacity:1;fill-rule:evenodd;stroke:#000000;stroke-width:0.79375;stroke-linecap:round;paint-order:fill markers stroke"
       id="path3457"
       cx="106.55257"
       cy="113.90103"
       rx="6.7360826"
       ry="5.5113406" />
    <ellipse
       style="fill:#0000ff;fill-opacity:1;fill-rule:evenodd;stroke:#000000;stroke-width:0.79375;stroke-linecap:round;paint-order:fill markers stroke"
       id="ellipse3459"
       cx="89.406181"
       cy="113.90103"
       rx="6.7360826"
       ry="5.5113406" />
    <ellipse
       style="fill:#c8b7b7;fill-opacity:1;fill-rule:evenodd;stroke:#000000;stroke-width:0.796598;stroke-linecap:round;paint-order:fill markers stroke"
       id="path4239"
       cx="81.86982"
       cy="-244.85938"
       rx="9.1855669"
       ry="9.8683882"
       transform="matrix(1,0,0.11927624,-0.99286111,0,0)" />
    <ellipse
       style="fill:#c8b7b7;fill-opacity:1;fill-rule:evenodd;stroke:#000000;stroke-width:0.7966;stroke-linecap:round;paint-order:fill markers stroke"
       id="ellipse4243"
       cx="120.05735"
       cy="-246.0939"
       rx="9.1855669"
       ry="9.8684273"
       transform="matrix(1,0,-0.11930897,-0.99285717,0,0)"
       inkscape:transform-center-x="1.2247423"
       inkscape:transform-center-y="-2.4494845" />
    <ellipse
       style="fill:#c8b7b7;fill-opacity:1;fill-rule:evenodd;stroke:#000000;stroke-width:0.794036;stroke-linecap:round;paint-order:fill markers stroke"
       id="ellipse4245"
       cx="110.28428"
       cy="-249.41484"
       rx="9.1855669"
       ry="9.805006"
       transform="matrix(1,0,0.03796087,-0.99927923,0,0)"
       inkscape:transform-center-x="0.83734035"
       inkscape:transform-center-y="-2.4494865" />
    <path
       style="fill:#e3dbdb;fill-opacity:1;fill-rule:evenodd;stroke:#000000;stroke-width:1.13905;stroke-linecap:round;paint-order:fill markers stroke"
       id="path4299"
       transform="matrix(-0.50690183,0.86200379,0.39239905,0.91979508,0,0)"
       sodipodi:type="arc"
       sodipodi:cx="-70.2547"
       sodipodi:cy="239.59067"
       sodipodi:rx="7.4423256"
       sodipodi:ry="53.229763"
       sodipodi:start="0"
       sodipodi:end="3.1528167"
       sodipodi:arc-type="slice"
       d="m -62.812374,239.59067 a 7.4423256,53.229763 0 0 1 -3.745303,46.19758 7.4423256,53.229763 0 0 1 -7.466309,-0.2997 7.4423256,53.229763 0 0 1 -3.672571,-46.49532 l 7.441857,0.59744 z"
       inkscape:transform-center-x="-7.529205"
       inkscape:transform-center-y="16.207312" />
    <path
       style="fill:#e3dbdb;fill-opacity:1;fill-rule:evenodd;stroke:#000000;stroke-width:1.13905;stroke-linecap:round;paint-order:fill markers stroke"
       id="path5031"
       transform="matrix(0.50690183,0.86200379,-0.39239905,0.91979508,0,0)"
       sodipodi:type="arc"
       sodipodi:cx="158.6747"
       sodipodi:cy="27.708128"
       sodipodi:rx="7.4423256"
       sodipodi:ry="53.229763"
       sodipodi:start="0"
       sodipodi:end="3.1528167"
       sodipodi:arc-type="slice"
       d="m 166.11702,27.708128 a 7.4423256,53.229763 0 0 1 -3.7453,46.19758 7.4423256,53.229763 0 0 1 -7.46631,-0.299693 7.4423256,53.229763 0 0 1 -3.67257,-46.495328 l 7.44186,0.597441 z"
       inkscape:transform-center-x="7.529207"
       inkscape:transform-center-y="16.207314" />
  </g>
</svg>
