<?xml version='1.0' encoding='UTF-8' standalone='no'?>
<svg viewBox="0 0 2970 2100" xmlns:dc="http://purl.org/dc/elements/1.1/" xmlns:rdf="http://www.w3.org/1999/02/22-rdf-syntax-ns#" height="210mm" xmlns:xlink="http://www.w3.org/1999/xlink" version="1.2" xmlns="http://www.w3.org/2000/svg" xmlns:cc="http://creativecommons.org/ns#" xmlns:freecad="https://www.freecad.org/wiki/index.php?title=Svg_Namespace" xmlns:sodipodi="http://sodipodi.sourceforge.net/DTD/sodipodi-0.dtd" xmlns:inkscape="http://www.inkscape.org/namespaces/inkscape" xmlns:svg="http://www.w3.org/2000/svg" width="297mm" baseProfile="tiny">
 <title>FreeCAD SVG Export</title>
 <desc>Drawing page: Page exported from FreeCAD document: eva_cotas</desc>
 <defs/>
 <g id="Page" inkscape:groupmode="layer" inkscape:label="TechDraw">
  <g style="stroke: none;" transform="scale(10.000000, 10.000000)" id="Default_Template_A4_Landscape.svg">
   <metadata id="metadata8">
    <rdf:RDF>
     <cc:Work rdf:about="">
      <dc:format>image/svg+xml</dc:format>
      <dc:type rdf:resource="http://purl.org/dc/dcmitype/StillImage"/>
     </cc:Work>
    </rdf:RDF>
   </metadata>
  </g>
  <g stroke-linejoin="bevel" fill-rule="evenodd" id="DrawingContent" fill="none" stroke="black" stroke-width="1" stroke-linecap="square">
   <g font-family="Sans Serif" font-size="31.75" transform="matrix(1,0,0,1,1444.69,987.696)" font-style="normal" fill="#ffffff" fill-opacity="1" stroke="none" font-weight="400">
    <path d="M2.54361,691.521 C168.229,691.823 302.972,457.018 303.501,167.069 C304.031,-122.881 170.146,-358.176 4.46038,-358.479 M4.46038,-358.479 C-161.225,-358.781 -295.968,-123.976 -296.497,165.973 C-297.027,455.923 -163.142,691.219 2.54361,691.521 " fill-rule="evenodd" vector-effect="non-scaling-stroke"/>
   </g>
   <g font-family="Sans Serif" font-size="31.75" transform="matrix(1,0,0,1,1444.69,987.696)" font-style="normal" fill="#ffffff" fill-opacity="1" stroke="none" font-weight="400">
    <path d="M235.632,-589.455 C235.632,-465.191 134.896,-364.455 10.6319,-364.455 C-113.632,-364.455 -214.368,-465.191 -214.368,-589.455 C-214.368,-713.719 -113.632,-814.455 10.6319,-814.455 C134.896,-814.455 235.632,-713.719 235.632,-589.455 " fill-rule="evenodd" vector-effect="non-scaling-stroke"/>
   </g>
   <g font-family="Sans Serif" font-size="31.75" transform="matrix(1,0,0,1,1444.69,987.696)" font-style="normal" fill="#ffffff" fill-opacity="1" stroke="none" font-weight="400">
    <path d="M-130.325,751.936 C-130.325,785.073 -157.188,811.936 -190.325,811.936 C-223.462,811.936 -250.325,785.073 -250.325,751.936 C-250.325,718.799 -223.462,691.936 -190.325,691.936 C-157.188,691.936 -130.325,718.799 -130.325,751.936 " fill-rule="evenodd" vector-effect="non-scaling-stroke"/>
   </g>
   <g font-family="Sans Serif" font-size="31.75" transform="matrix(1,0,0,1,1444.69,987.696)" font-style="normal" fill="#ffffff" fill-opacity="1" stroke="none" font-weight="400">
    <path d="M57.2503,751.927 C57.2503,785.064 30.3874,811.927 -2.74968,811.927 C-35.8868,811.927 -62.7497,785.064 -62.7497,751.927 C-62.7497,718.79 -35.8868,691.927 -2.74968,691.927 C30.3874,691.927 57.2503,718.79 57.2503,751.927 " fill-rule="evenodd" vector-effect="non-scaling-stroke"/>
   </g>
   <g font-family="Sans Serif" font-size="31.75" transform="matrix(1,0,0,1,1444.69,987.696)" font-style="normal" fill="#ffffff" fill-opacity="1" stroke="none" font-weight="400">
    <path d="M250.853,754.455 C250.853,787.592 223.99,814.455 190.853,814.455 C157.716,814.455 130.853,787.592 130.853,754.455 C130.853,721.318 157.716,694.455 190.853,694.455 C223.99,694.455 250.853,721.318 250.853,754.455 " fill-rule="evenodd" vector-effect="non-scaling-stroke"/>
   </g>
   <g font-family="Sans Serif" stroke-linejoin="bevel" font-size="31.75" transform="matrix(1,0,0,1,1444.69,987.696)" font-style="normal" fill="none" stroke="#000000" stroke-opacity="1" font-weight="400" stroke-width="7" stroke-linecap="round">
    <path d="M2.54361,691.521 C168.229,691.823 302.972,457.018 303.501,167.069 C304.031,-122.881 170.146,-358.176 4.46038,-358.479 M4.46038,-358.479 C-161.225,-358.781 -295.968,-123.976 -296.497,165.973 C-297.027,455.923 -163.142,691.219 2.54361,691.521 " fill-rule="evenodd" vector-effect="none"/>
   </g>
   <g font-family="Sans Serif" stroke-linejoin="bevel" font-size="31.75" transform="matrix(1,0,0,1,1444.69,987.696)" font-style="normal" fill="none" stroke="#000000" stroke-opacity="1" font-weight="400" stroke-width="7" stroke-linecap="round">
    <path d="M235.632,-589.455 C235.632,-465.191 134.896,-364.455 10.6319,-364.455 C-113.632,-364.455 -214.368,-465.191 -214.368,-589.455 C-214.368,-713.719 -113.632,-814.455 10.6319,-814.455 C134.896,-814.455 235.632,-713.719 235.632,-589.455 " fill-rule="evenodd" vector-effect="none"/>
   </g>
   <g font-family="Sans Serif" stroke-linejoin="bevel" font-size="31.75" transform="matrix(1,0,0,1,1444.69,987.696)" font-style="normal" fill="none" stroke="#000000" stroke-opacity="1" font-weight="400" stroke-width="7" stroke-linecap="round">
    <path d="M-303.503,691.521 L296.497,691.521" fill-rule="evenodd" vector-effect="none"/>
   </g>
   <g font-family="Sans Serif" stroke-linejoin="bevel" font-size="31.75" transform="matrix(1,0,0,1,1444.69,987.696)" font-style="normal" fill="none" stroke="#000000" stroke-opacity="1" font-weight="400" stroke-width="7" stroke-linecap="round">
    <path d="M-130.325,751.936 C-130.325,785.073 -157.188,811.936 -190.325,811.936 C-223.462,811.936 -250.325,785.073 -250.325,751.936 C-250.325,718.799 -223.462,691.936 -190.325,691.936 C-157.188,691.936 -130.325,718.799 -130.325,751.936 " fill-rule="evenodd" vector-effect="none"/>
   </g>
   <g font-family="Sans Serif" stroke-linejoin="bevel" font-size="31.75" transform="matrix(1,0,0,1,1444.69,987.696)" font-style="normal" fill="none" stroke="#000000" stroke-opacity="1" font-weight="400" stroke-width="7" stroke-linecap="round">
    <path d="M250.853,754.455 C250.853,787.592 223.99,814.455 190.853,814.455 C157.716,814.455 130.853,787.592 130.853,754.455 C130.853,721.318 157.716,694.455 190.853,694.455 C223.99,694.455 250.853,721.318 250.853,754.455 " fill-rule="evenodd" vector-effect="none"/>
   </g>
   <g font-family="Sans Serif" stroke-linejoin="bevel" font-size="31.75" transform="matrix(1,0,0,1,1444.69,987.696)" font-style="normal" fill="none" stroke="#000000" stroke-opacity="1" font-weight="400" stroke-width="7" stroke-linecap="round">
    <path d="M57.2503,751.927 C57.2503,785.064 30.3874,811.927 -2.74968,811.927 C-35.8868,811.927 -62.7497,785.064 -62.7497,751.927 C-62.7497,718.79 -35.8868,691.927 -2.74968,691.927 C30.3874,691.927 57.2503,718.79 57.2503,751.927 " fill-rule="evenodd" vector-effect="none"/>
   </g>
   <g font-family="Sans Serif" stroke-linejoin="bevel" font-size="31.75" transform="matrix(0.999999,0.00152547,-0.00152547,0.999999,1832.56,287.817)" font-style="normal" fill="none" stroke="#000000" stroke-opacity="1" font-weight="400" stroke-width="1" stroke-linecap="square">
    <text font-family="osifont" font-size="67" font-style="normal" fill="#000000" fill-opacity="1" stroke="none" xml:space="preserve" x="4" font-weight="400" y="93">⌀15</text>
   </g>
   <g font-family="Sans Serif" stroke-linejoin="bevel" font-size="31.75" transform="matrix(1,0,0,1,1444.69,987.696)" font-style="normal" fill="none" stroke="#000000" stroke-opacity="1" font-weight="400" stroke-width="3.5" stroke-linecap="round">
    <path d="M-284.368,-589.905 L496.661,-588.713" fill-rule="evenodd" vector-effect="none"/>
   </g>
   <g font-family="Sans Serif" stroke-linejoin="bevel" font-size="31.75" transform="matrix(1,0,0,1,1680.32,398.585)" font-style="normal" fill="#000000" fill-opacity="1" stroke="#000000" stroke-opacity="1" font-weight="400" stroke-width="3.5" stroke-linecap="round">
    <path d="M0,0 L34.9911,5.88672 L35.0089,-5.77994 L0,0" fill-rule="evenodd" vector-effect="none"/>
   </g>
   <g font-family="Sans Serif" stroke-linejoin="bevel" font-size="31.75" transform="matrix(1,0,0,1,1230.32,397.898)" font-style="normal" fill="#000000" fill-opacity="1" stroke="#000000" stroke-opacity="1" font-weight="400" stroke-width="3.5" stroke-linecap="round">
    <path d="M0,0 L-34.9911,-5.88672 L-35.0089,5.77994 L0,0" fill-rule="evenodd" vector-effect="none"/>
   </g>
   <g font-family="Sans Serif" stroke-linejoin="bevel" font-size="31.75" transform="matrix(1,0,0,1,2051.34,1501.91)" font-style="normal" fill="none" stroke="#000000" stroke-opacity="1" font-weight="400" stroke-width="1" stroke-linecap="square">
    <text font-family="osifont" font-size="67" font-style="normal" fill="#000000" fill-opacity="1" stroke="none" xml:space="preserve" x="4" font-weight="400" y="93">20</text>
   </g>
   <g font-family="Sans Serif" stroke-linejoin="bevel" font-size="31.75" transform="matrix(1,0,0,1,1444.69,987.696)" font-style="normal" fill="none" stroke="#000000" stroke-opacity="1" font-weight="400" stroke-width="3.5" stroke-linecap="round">
    <path d="M-373.503,624.459 L677.324,624.459 M296.497,691.521 L296.497,596.459 M-303.503,691.521 L-303.503,596.459" fill-rule="evenodd" vector-effect="none"/>
   </g>
   <g font-family="Sans Serif" stroke-linejoin="bevel" font-size="31.75" transform="matrix(1,0,0,1,1741.18,1612.16)" font-style="normal" fill="#000000" fill-opacity="1" stroke="#000000" stroke-opacity="1" font-weight="400" stroke-width="3.5" stroke-linecap="round">
    <path d="M0,0 L35,5.83333 L35,-5.83333 L0,0" fill-rule="evenodd" vector-effect="none"/>
   </g>
   <g font-family="Sans Serif" stroke-linejoin="bevel" font-size="31.75" transform="matrix(1,0,0,1,1141.18,1612.16)" font-style="normal" fill="#000000" fill-opacity="1" stroke="#000000" stroke-opacity="1" font-weight="400" stroke-width="3.5" stroke-linecap="round">
    <path d="M0,0 L-35,-5.83333 L-35,5.83333 L0,0" fill-rule="evenodd" vector-effect="none"/>
   </g>
   <g font-family="Sans Serif" stroke-linejoin="bevel" font-size="31.75" transform="matrix(0,-1,1,0,2183.26,1152.22)" font-style="normal" fill="none" stroke="#000000" stroke-opacity="1" font-weight="400" stroke-width="1" stroke-linecap="square">
    <text font-family="osifont" font-size="67" font-style="normal" fill="#000000" fill-opacity="1" stroke="none" xml:space="preserve" x="4" font-weight="400" y="93">35.2</text>
   </g>
   <g font-family="Sans Serif" stroke-linejoin="bevel" font-size="31.75" transform="matrix(1,0,0,1,1444.69,987.696)" font-style="normal" fill="none" stroke="#000000" stroke-opacity="1" font-weight="400" stroke-width="3.5" stroke-linecap="round">
    <path d="M848.819,691.521 L848.819,-364.455 M10.6319,-364.455 L876.819,-364.455 M10.6319,691.521 L876.819,691.521" fill-rule="evenodd" vector-effect="none"/>
   </g>
   <g font-family="Sans Serif" stroke-linejoin="bevel" font-size="31.75" transform="matrix(1,0,0,1,2293.51,623.242)" font-style="normal" fill="#000000" fill-opacity="1" stroke="#000000" stroke-opacity="1" font-weight="400" stroke-width="3.5" stroke-linecap="round">
    <path d="M0,0 L-5.83333,35 L5.83333,35 L0,0" fill-rule="evenodd" vector-effect="none"/>
   </g>
   <g font-family="Sans Serif" stroke-linejoin="bevel" font-size="31.75" transform="matrix(1,0,0,1,2293.51,1679.22)" font-style="normal" fill="#000000" fill-opacity="1" stroke="#000000" stroke-opacity="1" font-weight="400" stroke-width="3.5" stroke-linecap="round">
    <path d="M0,0 L5.83333,-35 L-5.83333,-35 L0,0" fill-rule="evenodd" vector-effect="none"/>
   </g>
   <g font-family="Sans Serif" stroke-linejoin="bevel" font-size="31.75" transform="matrix(0.999709,0.0241332,-0.0241332,0.999709,1933.35,1638.31)" font-style="normal" fill="none" stroke="#000000" stroke-opacity="1" font-weight="400" stroke-width="1" stroke-linecap="square">
    <text font-family="osifont" font-size="67" font-style="normal" fill="#000000" fill-opacity="1" stroke="none" xml:space="preserve" x="4" font-weight="400" y="93">⌀4</text>
   </g>
   <g font-family="Sans Serif" stroke-linejoin="bevel" font-size="31.75" transform="matrix(1,0,0,1,1444.69,987.696)" font-style="normal" fill="none" stroke="#000000" stroke-opacity="1" font-weight="400" stroke-width="3.5" stroke-linecap="round">
    <path d="M60.8905,751.317 L573.549,763.693" fill-rule="evenodd" vector-effect="none"/>
   </g>
   <g font-family="Sans Serif" stroke-linejoin="bevel" font-size="31.75" transform="matrix(1,0,0,1,1695.52,1743.6)" font-style="normal" fill="#000000" fill-opacity="1" stroke="#000000" stroke-opacity="1" font-weight="400" stroke-width="3.5" stroke-linecap="round">
    <path d="M0,0 L34.849,6.6763 L35.1306,-4.98697 L0,0" fill-rule="evenodd" vector-effect="none"/>
   </g>
   <g font-family="Sans Serif" stroke-linejoin="bevel" font-size="31.75" transform="matrix(1,0,0,1,1575.56,1740.7)" font-style="normal" fill="#000000" fill-opacity="1" stroke="#000000" stroke-opacity="1" font-weight="400" stroke-width="3.5" stroke-linecap="round">
    <path d="M0,0 L-34.849,-6.6763 L-35.1306,4.98697 L0,0" fill-rule="evenodd" vector-effect="none"/>
   </g>
   <g font-family="Sans Serif" stroke-linejoin="bevel" font-size="31.75" transform="matrix(0.999915,0.013054,-0.013054,0.999915,1586.47,1786.17)" font-style="normal" fill="none" stroke="#000000" stroke-opacity="1" font-weight="400" stroke-width="1" stroke-linecap="square">
    <text font-family="osifont" font-size="67" font-style="normal" fill="#000000" fill-opacity="1" stroke="none" xml:space="preserve" x="4" font-weight="400" y="93">2.45</text>
   </g>
   <g font-family="Sans Serif" stroke-linejoin="bevel" font-size="31.75" transform="matrix(1,0,0,1,1444.69,987.696)" font-style="normal" fill="none" stroke="#000000" stroke-opacity="1" font-weight="400" stroke-width="3.5" stroke-linecap="round">
    <path d="M260.365,910.286 L-14.771,906.694 M57.2452,752.71 L54.8575,935.605 M130.858,753.672 L128.47,936.566" fill-rule="evenodd" vector-effect="none"/>
   </g>
   <g font-family="Sans Serif" stroke-linejoin="bevel" font-size="31.75" transform="matrix(1,0,0,1,1499.91,1895.3)" font-style="normal" fill="#000000" fill-opacity="1" stroke="#000000" stroke-opacity="1" font-weight="400" stroke-width="3.5" stroke-linecap="round">
    <path d="M0,0 L-34.9209,-6.28973 L-35.0732,5.37595 L0,0" fill-rule="evenodd" vector-effect="none"/>
   </g>
   <g font-family="Sans Serif" stroke-linejoin="bevel" font-size="31.75" transform="matrix(1,0,0,1,1573.52,1896.27)" font-style="normal" fill="#000000" fill-opacity="1" stroke="#000000" stroke-opacity="1" font-weight="400" stroke-width="3.5" stroke-linecap="round">
    <path d="M0,0 L34.9209,6.28973 L35.0732,-5.37595 L0,0" fill-rule="evenodd" vector-effect="none"/>
   </g>
  </g>
 </g>
</svg>
